<svg xmlns="http://www.w3.org/2000/svg" width="1200" height="340" viewBox="0 0 1200 340" fill="none" role="img" aria-label="Точка качества — образовательная программа, уровень 1">
  <defs>
    <linearGradient id="brand" x1="0" y1="0" x2="0.62" y2="0.83">
      <stop offset="0.05" stop-color="#7271EF"/>
      <stop offset="0.58" stop-color="#FF5281"/>
      <stop offset="0.92" stop-color="#FF7C52"/>
    </linearGradient>
    <clipPath id="frame">
      <rect width="1200" height="340" rx="28"/>
    </clipPath>
  </defs>

  <g clip-path="url(#frame)">
    <rect width="1200" height="340" fill="url(#brand)"/>

    <g fill="#FFFFFF" opacity="0.10">
      <circle cx="1055" cy="66" r="190"/>
      <circle cx="1180" cy="300" r="120"/>
      <circle cx="880" cy="330" r="70"/>
    </g>
    <g stroke="#FFFFFF" stroke-opacity="0.22" stroke-width="2" fill="none">
      <circle cx="1055" cy="66" r="240"/>
      <circle cx="1055" cy="66" r="300"/>
    </g>

    <g transform="translate(80 84) scale(2.15)">
      <path d="M71.4961 10.9932H83.2462V13.7387H78.8122V28.7249H75.9301V13.7387H71.4961V10.9932Z" fill="#FFFFFF"/>
      <path d="M84.4654 16.1375C84.798 15.1079 85.4631 14.0783 86.239 13.2775C87.015 12.4767 87.9018 11.7903 88.8994 11.4471C89.7862 10.9895 90.8947 10.7607 92.0032 10.7607C93.1117 10.7607 94.2202 10.9895 95.2179 11.4471C96.2156 11.9047 97.1024 12.5911 97.8783 13.3919C98.6543 14.1927 99.2085 15.2223 99.6519 16.2519C100.095 17.3959 100.317 18.6542 100.317 19.7982C100.317 21.0566 100.095 22.2006 99.6519 23.459C99.3194 24.4886 98.6543 25.5181 97.9892 26.3189C97.2132 27.1197 96.3264 27.8061 95.3287 28.2637C94.3311 28.7213 93.2226 28.9501 92.0032 28.9501C90.7839 28.9501 89.7862 28.7213 88.6777 28.2637C87.6801 27.8061 86.7933 27.1197 86.0173 26.3189C85.2414 25.5181 84.6871 24.4886 84.3546 23.459C83.9112 22.315 83.6895 21.0566 83.6895 19.7982C83.8003 18.5398 84.022 17.2815 84.4654 16.1375ZM87.3475 23.0014C87.7909 23.9166 88.456 24.7173 89.232 25.1749C90.1188 25.7469 91.0056 25.9757 92.0032 25.9757C93.0009 25.9757 93.9985 25.7469 94.7745 25.1749C95.5504 24.603 96.2155 23.9166 96.6589 23.0014C97.1024 21.9718 97.3241 20.9422 97.3241 19.7982C97.3241 18.6542 97.1024 17.6246 96.6589 16.5951C96.2155 15.6799 95.5504 14.8791 94.7745 14.4215C93.8877 13.8495 93.0009 13.6207 92.0032 13.6207C91.0056 13.6207 90.0079 13.8495 89.232 14.4215C88.456 14.9935 87.7909 15.6799 87.3475 16.5951C86.9041 17.6246 86.6824 18.6542 86.6824 19.7982C86.6824 20.8278 86.9041 21.9718 87.3475 23.0014Z" fill="#FFFFFF"/>
      <path d="M104.641 15.7979C104.641 16.4843 104.752 17.0563 104.974 17.7427C105.196 18.3147 105.528 18.7723 105.972 19.0011C106.415 19.3443 106.969 19.4586 107.634 19.4586L107.191 22.0898C106.193 22.0898 105.085 21.861 104.198 21.289C103.422 20.717 102.757 20.0306 102.424 19.1155C101.981 18.0859 101.759 17.0563 101.87 16.0267V10.9932H104.752V15.7979H104.641ZM107.634 19.573H112.512V22.2042H107.191L107.634 19.573ZM114.064 10.9932V28.7249H111.071V10.9932H114.064Z" fill="#FFFFFF"/>
      <path d="M120.386 10.9932V28.7249H117.393V10.9932H120.386ZM130.805 10.9932L123.046 19.3442L130.584 28.7249H126.926L119.388 19.3442L127.147 10.9932H130.805Z" fill="#FFFFFF"/>
      <path d="M136.896 22.4313V23.1177L134.568 28.7233H131.354L139.667 9.96191L148.092 28.7233H144.877L142.549 23.3465L142.439 22.6601L139.667 16.025L136.896 22.4313ZM135.677 21.6306H143.658L144.212 24.1473H135.122L135.677 21.6306Z" fill="#FFFFFF"/>
      <path d="M74.5984 38.6768V56.4085H71.6055V38.6768H74.5984ZM85.1292 38.6768L77.3697 47.0278L84.9075 56.4085H81.2495L73.7116 47.0278L81.4712 38.6768H85.1292Z" fill="#FFFFFF"/>
      <path d="M91.3424 50.2321V50.9185L88.9036 56.524H85.5781L94.1136 37.7627L102.649 56.524H99.3236L96.9957 51.1473L96.8849 50.4609L94.1136 43.8258L91.3424 50.2321ZM90.123 49.3169H98.2151L98.7693 51.8337H89.4579L90.123 49.3169Z" fill="#FFFFFF"/>
      <path d="M104.641 43.5959C104.641 44.2823 104.752 44.8543 104.974 45.5407C105.196 46.1127 105.528 46.5702 105.972 46.799C106.415 47.1422 106.969 47.2566 107.634 47.2566L107.191 49.8878C106.193 49.8878 105.085 49.659 104.198 49.087C103.422 48.515 102.757 47.8286 102.424 46.9134C101.981 45.8839 101.759 44.8543 101.87 43.8247V38.6768H104.752V43.5959H104.641ZM107.634 47.2566H112.512V49.8878H107.191L107.634 47.2566ZM114.064 38.6768V56.4085H111.071V38.6768H114.064Z" fill="#FFFFFF"/>
      <path d="M120.165 38.6768V56.4085H117.283V38.6768H120.165ZM119.168 38.6768H127.814V41.3079H119.168V38.6768ZM119.168 45.6551H127.371V48.1718H119.168V45.6551ZM119.168 53.7774H127.814V56.4085H119.168V53.7774Z" fill="#FFFFFF"/>
      <path d="M133.687 50.8002C134.13 51.7154 134.906 52.4018 135.682 52.9738C136.569 53.4314 137.456 53.7746 138.453 53.7746C139.119 53.7746 139.895 53.6602 140.56 53.4314C141.114 53.2026 141.779 52.9738 142.222 52.5162C142.666 52.173 143.109 51.7154 143.553 51.2578V54.8041C142.887 55.3761 142.112 55.8337 141.336 56.1769C140.338 56.5201 139.34 56.6345 138.343 56.6345C137.234 56.6345 136.126 56.4057 135.017 55.9481C134.019 55.4905 133.133 54.9185 132.357 54.1178C131.581 53.317 131.026 52.2874 130.583 51.2578C129.696 48.9698 129.696 46.3387 130.583 43.9363C131.026 42.9067 131.581 41.8771 132.357 41.0763C133.133 40.2755 134.019 39.5892 135.017 39.246C136.126 38.7884 137.234 38.5596 138.343 38.5596C139.34 38.5596 140.338 38.674 141.336 39.0172C142.112 39.3604 142.887 39.818 143.553 40.3899V43.9363C143.22 43.4787 142.777 43.0211 142.222 42.6779C141.668 42.3347 141.114 41.9915 140.56 41.7627C139.895 41.5339 139.229 41.4195 138.453 41.4195C137.456 41.4195 136.569 41.6483 135.682 42.2203C134.795 42.7923 134.13 43.4787 133.687 44.3939C133.133 45.4235 132.911 46.5675 132.911 47.597C132.911 48.6266 133.243 49.7706 133.687 50.8002Z" fill="#FFFFFF"/>
      <path d="M145.875 38.6768H157.625V41.4223H153.191V56.4085H150.309V41.4223H145.875V38.6768Z" fill="#FFFFFF"/>
      <path d="M162.174 45.7675H164.945C165.389 45.7675 165.943 45.6531 166.386 45.5387C166.719 45.4243 167.051 45.0811 167.384 44.7379C167.606 44.3947 167.717 43.9371 167.717 43.4795C167.717 43.1363 167.717 42.7931 167.495 42.5643C167.384 42.2212 167.162 41.9924 166.941 41.7636C166.386 41.306 165.721 41.0772 164.945 41.1916H162.839V54.0042H165.278C165.832 54.0042 166.497 53.8898 167.051 53.661C167.495 53.4322 167.938 53.089 168.271 52.6314C168.493 52.1738 168.714 51.7162 168.714 51.2586C168.714 50.801 168.603 50.229 168.493 49.7715C168.382 49.4283 168.049 49.0851 167.827 48.8563C167.495 48.6275 167.162 48.3987 166.719 48.2843C166.275 48.1699 165.832 48.1699 165.389 48.1699H162.285V46.5683H165.5C166.276 46.5683 167.051 46.6827 167.827 46.7971C168.493 46.9115 169.158 47.2547 169.823 47.7123C170.377 48.0555 170.82 48.6275 171.153 49.1995C171.485 49.8859 171.707 50.5722 171.596 51.373C171.707 52.4026 171.375 53.3178 170.82 54.233C170.266 55.0338 169.49 55.7202 168.603 55.949C167.606 56.2922 166.497 56.521 165.389 56.521H159.957V38.6748H165.167C166.165 38.6748 167.162 38.7892 168.049 39.1324C168.825 39.3612 169.49 39.9332 170.044 40.6196C170.488 41.306 170.82 42.2212 170.71 43.1363C170.71 43.9371 170.488 44.7379 170.044 45.4243C169.49 46.1107 168.825 46.5683 168.049 46.7971C167.162 47.1403 166.165 47.2547 165.167 47.2547H162.174V45.7675Z" fill="#FFFFFF"/>
      <path d="M177.915 50.2321V50.9185L175.476 56.524H172.262L180.686 37.7627L189.111 56.524H185.896L183.568 51.1473L183.458 50.4609L180.686 43.8258L177.915 50.2321ZM176.585 49.3169H184.566L185.12 51.8337H176.031L176.585 49.3169Z" fill="#FFFFFF"/>
      <path d="M28.8211 0.124023C18.0686 5.61515 8.31378 12.8222 0 21.7453C1.77361 34.7867 5.09912 46.5698 10.9742 56.6368C22.7243 58.5816 34.807 58.5816 46.5572 56.6368C51.9889 45.6546 55.7578 33.8716 57.5314 21.7453C49.5501 13.1654 39.7953 6.07274 28.8211 0.124023Z" fill="#FFFFFF"/>
      <path d="M13.8516 22.8877H27.4862V26.0909H22.2762V43.1362H18.9507V26.0909H13.8516V22.8877Z" fill="#16181D"/>
      <path d="M33.036 22.8877V43.1362H29.5996V22.8877H33.036ZM44.6753 22.8877L36.0289 32.3828L44.4536 43.1362H40.3521L31.9275 32.4972L40.6847 22.8877H44.6753Z" fill="#16181D"/>
    </g>

    <rect x="82" y="238" width="72" height="4" rx="2" fill="#FFFFFF" opacity="0.85"/>
    <text x="82" y="290" fill="#FFFFFF" font-family="Futura, 'Trebuchet MS', 'Segoe UI', Verdana, sans-serif" font-size="38" font-weight="600" letter-spacing="0.5">Образовательная программа · Уровень 1</text>
  </g>
</svg>
